<svg xmlns="http://www.w3.org/2000/svg" xmlns:xlink="http://www.w3.org/1999/xlink" style="margin:auto;display:block;" width="25px" height="25px" viewBox="0 0 100 100" preserveAspectRatio="xMidYMid">

<!-- <path d="M32.32233047033631 67.67766952966369 L39.39339828220179 60.60660171779821 A15 15 0 0 1 60.60660171779821 39.39339828220179 L67.67766952966369 32.32233047033631 L167.6776695296637 132.3223304703363 L132.3223304703363 167.6776695296637 Z" fill="#37646f" mask="url(#ldio-k7fsqyxxrr-mask)"></path> -->
<g transform="translate(50 50)">
<g>
<animateTransform attributeName="transform" type="rotate" values="0;360" keyTimes="0;1" dur="1.7857142857142856s" repeatCount="indefinite"></animateTransform><path d="M37.66961640367473 -5 L47.66961640367473 -5 L47.66961640367473 5 L37.66961640367473 5 A38 38 0 0 1 36.446590172095256 10.75388603377075 L36.446590172095256 10.75388603377075 L45.58204474852127 14.821252464528751 L41.51467831776327 23.956707040954765 L32.379223741337256 19.88934061019676 A38 38 0 0 1 28.921617392883434 24.648327476314947 L28.921617392883434 24.648327476314947 L35.61292345647202 32.07977573108889 L28.181475201698074 38.77108179467747 L21.49016913810949 31.33963353990353 A38 38 0 0 1 16.395834221796544 34.28084917517892 L16.395834221796544 34.28084917517892 L19.48600416554602 43.79141433813046 L9.975439002594493 46.88158428187993 L6.885269058845019 37.371019118928395 A38 38 0 0 1 1.0350623622832658 37.985900619916656 L1.0350623622832658 37.985900619916656 L-0.01022227039326773 47.93111957359939 L-9.95544122407601 46.885834940922855 L-8.910156591399476 36.94061598724012 A38 38 0 0 1 -14.504681182915167 35.12284475639732 L-14.504681182915167 35.12284475639732 L-19.504681182915164 43.78309879424171 L-28.164935220759542 38.78309879424172 L-23.164935220759546 30.122844756397328 A38 38 0 0 1 -27.53643358069578 26.18672995346937 L-27.53643358069578 26.18672995346937 L-35.62660352444525 32.0645824763941 L-41.50445604736998 23.974412532644635 L-33.414286103620505 18.0965600097199 A38 38 0 0 1 -35.80688645172844 12.722691642613453 L-35.80688645172844 12.722691642613453 L-45.588362459066495 14.801808550791051 L-47.66747936724409 5.020332543453005 L-37.886003359906034 2.941215635275407 A38 38 0 0 1 -37.88600335990604 -2.9412156352753804 L-37.88600335990604 -2.9412156352753804 L-47.6674793672441 -5.020332543452971 L-45.5883624590665 -14.801808550791021 L-35.806886451728445 -12.72269164261343 A38 38 0 0 1 -33.41428610362051 -18.096560009719894 L-33.41428610362051 -18.096560009719894 L-41.504456047369985 -23.974412532644624 L-35.62660352444526 -32.064582476394094 L-27.536433580695782 -26.186729953469364 A38 38 0 0 1 -23.164935220759578 -30.122844756397303 L-23.164935220759578 -30.122844756397303 L-28.16493522075958 -38.78309879424169 L-19.504681182915178 -43.783098794241695 L-14.504681182915174 -35.12284475639731 A38 38 0 0 1 -8.910156591399518 -36.940615987240115 L-8.910156591399518 -36.940615987240115 L-9.955441224076061 -46.88583494092285 L-0.010222270393302813 -47.93111957359939 L1.0350623622832396 -37.985900619916656 A38 38 0 0 1 6.885269058844993 -37.371019118928395 L6.885269058844993 -37.371019118928395 L9.975439002594467 -46.88158428187993 L19.486004165546028 -43.79141433813046 L16.395834221796555 -34.28084917517892 A38 38 0 0 1 21.490169138109465 -31.339633539903552 L21.490169138109465 -31.339633539903552 L28.181475201698042 -38.7710817946775 L35.612923456472004 -32.0797757310889 L28.921617392883427 -24.648327476314954 A38 38 0 0 1 32.37922374133723 -19.889340610196797 L32.37922374133723 -19.889340610196797 L41.514678317763234 -23.956707040954807 L45.582044748521255 -14.82125246452878 L36.44659017209525 -10.753886033770769 A38 38 0 0 1 37.66961640367472 -5.000000000000022 M0 -20A20 20 0 1 0 0 20 A20 20 0 1 0 0 -20" fill="#ffa03e" transform="scale(1)"></path></g></g>
</svg>